<svg xmlns="http://www.w3.org/2000/svg" xmlns:xlink="http://www.w3.org/1999/xlink" version="1.1" id="Layer_2" x="0px" y="0px" viewBox="0 0 100 100" enable-background="new 0 0 100 100" xml:space="preserve" height="100px" width="100px">
<g>
	<path d="M94.1,61.1c-1.9-15.5-15-29.1-31.3-27c-0.1,0-0.1,0-0.2,0.1c-2.7-2.6-6.5-3.7-10.2-2.2c-1.9-2.7-3.7-5.3-5.1-8.3   c2.9-2.7,5.9-5.1,9.6-6.5c0.3-0.1,0.6-0.5,0.5-0.8c-0.9-3.3-2.6-6.4-4.9-9c-0.3-0.3-0.7-0.3-1,0C47.8,11,43.5,14.8,42,20   c-1.3,4.4,1.2,8.8,4.1,12c0,0,0,0-0.1,0.1c-0.6-0.1-1.1-0.2-1.7-0.2c-0.1,0-0.1,0-0.2,0c-2.8,0-5.1,1.1-7.1,3.1   C21.2,28.6,8,42.6,6,57.6C5,65,6.1,72.8,10.4,79c4.5,6.6,12.4,9.5,20.3,8.8c0.2,0,0.4-0.1,0.5-0.2c5.2,3.7,12.1,5.1,18.4,5.2   c4.4,0.1,9-0.6,13-2.4c1.6-0.7,3.5-1.8,5.1-3.1c0.1,0.1,0.2,0.2,0.4,0.3c7.3,1.6,16.1-1.5,21-7C93.7,75.4,94.9,67.9,94.1,61.1z    M62.7,36.4c-0.8-0.1-1.6-0.1-2.5,0c0.3-0.2,0.5-0.4,0.8-0.6c0.2-0.2,0.4-0.3,0.6-0.5C62,35.6,62.3,36,62.7,36.4z M60.8,34.7   c-0.1,0.1-0.3,0.3-0.4,0.4c-0.3,0.4-0.7,0.7-1,1.1c-0.1,0.1-0.1,0.2-0.1,0.3c-0.5,0-0.9,0-1.4,0.1c0.5-0.4,1-0.8,1.5-1.1   c0.4-0.3,0.9-0.5,1.3-0.9C60.7,34.6,60.8,34.6,60.8,34.7z M59.8,34c-0.3,0.3-0.6,0.6-0.9,0.8c-0.7,0.5-1.4,1.1-1.9,1.8   c0,0,0,0,0,0.1c-0.5,0-1,0.1-1.5,0.1c-0.4,0-0.9,0.5-0.7,0.9c0.1,0.1,0.1,0.3,0.1,0.4c0,0,0,0-0.1,0c-0.4,0.1-0.8,0.5-1.1,0.8   c-0.4,0.3-0.7,0.7-1,1.1c0,0,0,0,0,0.1c-0.5-0.1-1-0.1-1.4-0.1c1.3-0.9,2.5-2,3.7-3.1c1.3-1.1,2.7-2,3.9-3.1   C59.2,33.6,59.5,33.8,59.8,34z M55.5,40c0.1,0.3,0.2,0.6,0.2,0.9c-0.2-0.1-0.5-0.2-0.7-0.3C55.2,40.4,55.3,40.2,55.5,40z    M54.4,40.2C54.4,40.2,54.4,40.3,54.4,40.2c-0.3,0-0.6-0.1-0.9-0.2c0.2-0.2,0.5-0.4,0.7-0.6c0.3-0.2,0.6-0.5,0.9-0.8   c0.1,0.2,0.1,0.3,0.1,0.5C54.9,39.4,54.7,39.8,54.4,40.2z M57.9,33.2c-1.1,0.7-2.1,1.7-3,2.5c-1.5,1.3-2.9,2.6-4.3,4c0,0,0,0,0,0.1   c-1.8,0.2-3.5,1.1-4.8,2.7c0-0.2,0-0.4,0-0.6c3.8-2.9,7.8-5.7,11.3-9C57.3,33,57.6,33.1,57.9,33.2z M52.8,33.5c0.1,0,0.1,0,0.2,0   c1.1-0.4,2.2-0.6,3.3-0.5c-3.8,2.3-7.5,5.3-10.6,8.5c0-0.4-0.1-0.8-0.1-1.3c0,0,0.1,0,0.1-0.1c1.3-1.4,2.7-2.7,4.2-3.9   C50.8,35.3,51.9,34.4,52.8,33.5z M51.5,33c0.1,0.1,0.2,0.2,0.3,0.2c-0.9,0.8-1.7,1.6-2.5,2.4c-1.3,1.2-2.6,2.5-3.8,3.9   c0-0.5-0.1-0.9-0.1-1.4c0.9-1,1.7-2,2.5-3c0.9-1,2.1-1.8,3.1-2.7C51.2,32.6,51.3,32.8,51.5,33z M50.2,31.1c0.2,0.2,0.3,0.5,0.5,0.7   c-1.1,0.5-2.2,1.6-2.9,2.4c-0.9,1-1.8,2-2.6,3.2c-0.2-0.1-0.3-0.1-0.5-0.1c0.2-0.3,0.3-0.6,0.5-0.9c0.5-0.8,1.3-1.6,1.9-2.3   C47.9,33.2,49.3,32.3,50.2,31.1z M49.2,29.6c-0.5,0.1-0.9,0.7-1.2,1c-0.3,0.3-0.5,0.6-0.8,1c-0.1-0.2-0.3-0.4-0.4-0.6c0,0,0,0,0,0   c0.2-0.6,0.6-1,1-1.5c0.3-0.3,0.6-0.6,0.8-0.9C48.8,28.9,49,29.2,49.2,29.6z M55.9,16.2c-1.4,0.5-2.7,1.2-4,2   c0.5-0.6,1-1.1,1.6-1.7c0.6-0.6,1.3-1.2,1.8-1.8C55.6,15.1,55.8,15.6,55.9,16.2z M54.6,12.8c-2.1,1.5-4,3.4-5.7,5.4   c1.8-2.1,3.6-4.2,5.2-6.4C54.2,12.1,54.4,12.4,54.6,12.8z M49.3,11.7c-1.9,2.4-3.6,4.9-5.3,7.3C45,16.3,47.1,13.9,49.3,11.7z    M43.5,20.5c1-1.1,1.9-2.3,2.9-3.5c-1,1.6-2,3.2-3,4.7C43.4,21.3,43.4,20.9,43.5,20.5z M43.3,22.4C43.3,22.4,43.4,22.4,43.3,22.4   c3.5-4,6-8.5,9.7-12.3c0.2,0.3,0.5,0.7,0.7,1.1c-4.1,3.3-7,8.4-10.3,12.4C43.4,23.2,43.3,22.8,43.3,22.4z M43.5,24.1   c0.1,0,0.2,0,0.3-0.1c0.5-0.6,1-1.2,1.5-1.8c-0.8,1.1-1.5,2.3-1.3,3.2c0,0.1,0.1,0.1,0.1,0.1c0.6-0.4,0.9-1.2,1.3-1.7   c1-1.5,2.2-2.8,3.4-4.1c1.8-2,3.8-3.8,5.8-5.6c-0.7,0.8-1.4,1.6-2,2.4c-0.7,0.8-1.3,1.6-1.8,2.5c-1.6,1.1-3.1,2.4-4.5,3.8   c-0.5,0.5-0.1,1.1,0.4,1.3c0.1,0.1,0.1,0.3,0.2,0.4c0,0-0.1,0-0.1,0c-0.5,0.4-0.8,1.1-1.1,1.7c-0.3,0.5-0.5,1-0.8,1.6   C44.2,26.5,43.7,25.3,43.5,24.1z M45.1,28.3c0.1,0,0.1-0.1,0.1-0.1c0.3-0.6,0.6-1.1,1-1.6c0.3-0.4,0.7-0.9,0.9-1.4   c0.2,0.5,0.4,1,0.6,1.5c-0.1,0-0.2,0-0.3,0c-0.5,0.4-0.9,1-1.3,1.5c-0.2,0.3-0.4,0.5-0.6,0.8C45.4,28.7,45.2,28.5,45.1,28.3z    M45.9,29.5c0.3-0.3,0.5-0.6,0.8-0.8c0.4-0.5,1-1,1.3-1.6c0,0,0,0,0,0c0.1,0.3,0.3,0.5,0.4,0.8c-0.5,0.1-0.9,0.7-1.2,1.1   c-0.3,0.4-0.6,0.8-0.8,1.3C46.2,30,46,29.8,45.9,29.5z M46.5,32.9c0.1,0,0.3,0,0.4,0c-0.3,0.3-0.6,0.7-0.8,1   c-0.8,0.8-2.2,2.3-2.1,3.5c-0.5,0.1-1.1,0.1-1.6,0.1c0.8-0.9,1.5-1.8,2.3-2.6C45.2,34.2,45.9,33.6,46.5,32.9z M45.2,32.9   c-0.4,0.5-0.8,1-1.2,1.4c-0.8,0.9-1.6,1.9-2.3,3c0,0.1,0,0.1,0,0.2c-0.5,0-1,0-1.4-0.1c0.6-0.7,1.3-1.5,1.9-2.2   c0.6-0.7,1.3-1.4,1.9-2.2C44.5,32.9,44.9,32.9,45.2,32.9z M42.9,33.3c-0.4,0.5-0.7,1-1.1,1.5c-0.7,0.8-1.4,1.7-2,2.6   c-0.4,0-0.7,0-1.1,0c1-1.2,2.1-2.4,3.1-3.6C42.2,33.6,42.5,33.4,42.9,33.3z M40.1,34.7c-0.7,0.9-1.4,1.8-2.1,2.7   c-0.2,0-0.5,0-0.7,0C38.1,36.3,39,35.4,40.1,34.7z M88.6,78.5c-2,2.8-4.9,4.8-8,6.1c-3.9,1.6-7.8,1.4-11.8,1.7   c1.1-1.1,1.9-2.4,2.1-3.8c0.1-0.3-0.1-0.6-0.3-0.8c7.9-2.5,14.4-7.6,13.7-17.5c0-0.1-0.1-0.2-0.1-0.3c0,0,0,0,0,0   c0.5-0.7-0.6-1.4-1.2-0.7c-2.6,3.5-7.5,8.7-10.2,2.2c-0.2-0.4-0.9-0.7-1.2-0.2c-0.9,2-2.9,3.1-4.2,4.8c-1.3-1.2-2.7-2.4-3.4-4.1   c-0.2-0.4-0.8-0.4-1,0c-0.9,1.5-2,2.5-2.5,4c-1.5-1.2-2.5-2.6-3.3-4.5c-0.1-0.2-0.3-0.3-0.5-0.2c-0.2-0.3-0.8-0.5-1.1,0   c-1.1,1.7-2.6,3.2-4,4.6c-0.6-0.8-1.2-1.5-1.8-2.3c0.1-0.3-0.1-0.5-0.4-0.5c-0.5-0.6-0.9-1.2-1.3-1.9c-0.3-0.4-0.9-0.4-1.1,0   c-1.1,1.6-2.4,3.1-4.2,3.6c-0.1,0-0.2,0-0.3,0c0,0-0.1,0.1-0.1,0.1c-0.3,0.1-0.5,0.1-0.8,0.1c-2.5,0.2-4-2.6-4.9-4.5   c-0.2-0.4-1-0.4-1.2,0c-0.8,1.8-2.3,3.1-3.5,4.6c-1.3-1.6-2.8-2.9-4.1-4.6c-0.3-0.4-0.9-0.5-1.2,0c-0.9,2-2.6,3.5-3.7,5.4   c-3.1-2.4-6.5-5-8.3-8.5c-0.1-0.3-0.6-0.1-0.5,0.2c0.3,0.8,0.7,1.5,1.2,2.3c0,0,0,0-0.1,0c-0.3,0.1-0.5,0.4-0.5,0.7   c-0.2-0.8-0.4-1.6-0.6-2.5c-0.1-0.5-0.9-0.4-0.8,0.1c0.5,5.2,2.9,12.2,7.5,15.2c0.6,0.4,1-0.4,0.7-0.9c-0.2-0.2-0.3-0.4-0.4-0.6   c2.5-2.9,4.8-6,6.9-9.2c0.3,0.3,0.5,0.5,0.8,0.8c-2.6,2.9-4.3,6.5-6.9,9.4c-0.1,0.1-0.1,0.2,0,0.3c0,0,0,0-0.1,0   c-0.2,0-0.3,0.2-0.2,0.3c0,0.1,0.1,0.2,0.2,0.2c0.1,0,0.1,0,0.1,0c0,0,0.1,0,0.2,0.1c0.4,0.2,0.8,0.4,1.2,0.5c1.4,0.6,3,1,4.4,1.5   c3.4,1.1,6.9,2.1,10.4,2.7c6.3,1.2,13.2,1.2,19.6,1c3.8-0.1,7.9-0.6,11.7-1.6c-2.2,2.7-3.8,4.9-7.2,6.6c-3.9,1.9-8.5,2.4-12.7,2.4   c-7.6,0-16.9-2.2-21.8-8.5c-0.4-0.5-1.3,0.2-0.9,0.7c0.8,1.1,1.6,2.1,2.6,2.9c-6.9,0-13.3-2.2-17.5-8.1c-4-5.6-4.9-12.8-4.2-19.4   c0.7-6.9,3.7-13.7,8.7-18.5c5.6-5.2,13.1-5.9,20.3-4.8c-0.8,0.8-1.5,1.8-2.1,2.8c-0.4,0.6,0.2,1.5,1,1.3c2.7-1.1,5.6-0.4,8.5-0.7   c0.1,2.1,0.5,4.3,0,6.4c-0.2,0.8,1,1.3,1.3,0.6c2.7-5.5,7.1-5.8,11.8-2.4c0.6,0.4,1.4-0.4,1-1c-1-1.3-1.2-2.8-1.6-4.3   c2.5-0.1,5-0.4,7.5,0c0.6,0.1,1.2-0.5,0.8-1.1c-0.4-0.6-0.8-1.2-1.2-1.8c14.9-0.3,26.2,10.6,28.7,25.1   C93.4,66.6,92.3,73.3,88.6,78.5z M45.9,68.5c-4.4,2.9-6.5,8.4-10.2,12.2c-0.5-0.1-1-0.2-1.4-0.3c1.5-1.3,2.6-3,3.7-4.6   c1.3-2,2.8-3.9,4.3-5.7c1.8-0.3,3.5-1.4,5.1-3.3c0.3,0.4,0.6,0.8,0.9,1.2c-2,2.1-3.5,4.6-5.4,6.7c-1.7,1.9-3.8,4-4.3,6.6   c-0.6-0.1-1.3-0.2-1.9-0.4c-0.1,0-0.1,0-0.2,0c4-3,6.5-8.3,9.7-12C46.3,68.6,46.1,68.3,45.9,68.5z M30.8,69.8   c0.2,0.2,0.3,0.4,0.5,0.6c-1.9,2.5-3.6,5.2-5.1,7.7c-0.6-0.2-1.2-0.3-1.8-0.5C26.7,75.5,29.4,72.7,30.8,69.8z M23.8,77.3   c0,0.1-0.1,0.1-0.1,0.2c-0.5-0.1-0.9-0.2-1.4-0.2c2.8-2.6,4.7-6.1,6.9-9.2c0.3,0.4,0.7,0.7,1,1.1c0,0,0,0-0.1,0   c-1.1,1.1-1.9,2.5-2.8,3.7C26.3,74.5,25,75.9,23.8,77.3z M31.7,71.9c1.4-1.8,3.1-3.5,4.4-5.5c0.1,0.2,0.3,0.4,0.4,0.6   c-2.9,3.7-5.6,7.7-8.7,11.3c-0.1,0.1-0.1,0.2-0.1,0.2c-0.3-0.1-0.6-0.2-0.9-0.2c0,0-0.1,0-0.1,0C28.3,76.2,30,74.1,31.7,71.9z    M36.9,67.7c0.2,0.3,0.5,0.5,0.7,0.8c0,0-0.1,0-0.1,0c-3.5,2.6-5.2,7.3-7.9,10.7c-0.4-0.1-0.8-0.2-1.2-0.3   C31.7,75.5,34.3,71.5,36.9,67.7z M37.9,68.8c0,0,0-0.1,0-0.1c0.4,0.4,0.9,0.7,1.4,0.9c-2.9,3.1-5,6.8-7.9,9.9c0,0,0,0.1-0.1,0.1   c-0.4-0.1-0.7-0.2-1.1-0.3C33.2,76.2,35.5,72.3,37.9,68.8z M39.8,69.9C39.9,69.9,39.9,69.8,39.8,69.9c0.4,0,0.7,0.1,1.1,0.2   c-2.9,2.8-4.6,7-7.2,9.9c0,0.1-0.1,0.1-0.1,0.2c-0.6-0.1-1.2-0.3-1.8-0.4C34.8,76.8,37.7,73.4,39.8,69.9z M44.1,74.7   c1.7-1.9,3-4.1,4.7-6.1c0.3,0.4,0.7,0.8,1,1.2c-2.9,3.9-7,7.2-8.9,11.8c-0.6-0.1-1.3-0.2-1.9-0.3C40.4,78.8,42.2,76.8,44.1,74.7z    M50.3,70.4c0.2,0.3,0.4,0.5,0.5,0.8c0,0,0,0,0.1,0.1c-2.9,3.1-5.5,6.8-7.5,10.5c-0.6-0.1-1.2-0.1-1.7-0.2   C43.9,77.4,47.5,74.3,50.3,70.4z M52,71.5c0.1-0.1,0.1-0.2,0.1-0.4c1.6-1.6,3.3-3.2,4.5-5.1c0.1,0.3,0.3,0.7,0.4,1c0,0,0,0,0,0   c-2.3,1.9-4.1,4.6-5.8,7c-1.9,2.7-3.8,5.3-5.7,7.9c-0.5,0-0.9-0.1-1.4-0.1C46.7,78.4,49.4,75,52,71.5z M51.4,75.4   c1.9-2.7,4-5.1,5.9-7.7c0.2,0.4,0.4,0.7,0.6,1c-0.1,0-0.2,0-0.3,0.2c-3.3,4.4-6.5,8.9-10,13.2c-0.5,0-1,0-1.5-0.1   C48.1,80,49.8,77.7,51.4,75.4z M58.2,69.2c0,0,0-0.1,0-0.1c0.3,0.4,0.7,0.8,1,1.2c-1.8,1.5-3.2,3.3-4.6,5.1   c-1.6,2.1-3.6,4.3-4.8,6.6c0,0,0,0.1,0,0.1c-0.5,0-0.9,0-1.4,0C52.2,78.2,55.6,74,58.2,69.2z M54.1,77.7c1.8-2.4,3.5-4.8,5.6-6.9   c0.2,0.2,0.4,0.3,0.6,0.5c-2.7,3.7-4.8,8-8.3,11c-0.6,0-1.2,0-1.7,0C51.9,81.2,53,79.2,54.1,77.7z M57.3,77c2.1-3,4.4-5.9,6.7-8.8   c0.3,0.4,0.6,0.7,0.9,1c-3.7,3.8-6.8,8.6-9.8,12.9c-0.3,0-0.6,0-0.9,0c-0.4,0-0.8,0-1.2,0C54.7,81,56.1,78.8,57.3,77z M62.6,68.5   c0.3-0.4,0.6-0.7,0.8-1.1c0,0.1,0.1,0.1,0.1,0.2C63.2,67.9,62.9,68.2,62.6,68.5z M65.4,69.7c0.3,0.3,0.7,0.7,1,1   c-2,1.8-3.9,4-5.5,6.2c-1.1,1.5-2.7,3.3-2.9,5.2c-0.7,0-1.4,0.1-2.1,0.1C59.1,78.3,62.8,74.1,65.4,69.7z M62.3,76.5   c1.5-1.8,3.2-3.4,4.7-5.2c0,0,0,0,0,0c0.1,0.1,0.3,0.2,0.5,0.2c-1.1,1.1-2.1,2.2-3.1,3.3c-1.8,2.1-3.7,4.4-4.3,7.2   c-0.6,0-1.2,0.1-1.8,0.1C59.6,80.1,60.8,78.3,62.3,76.5z M72.7,67.8c0.2,0.3,0.4,0.5,0.6,0.7c-4.1,3.8-9.3,8.1-11.6,13.4   c-0.3,0-0.6,0.1-0.9,0.1C62.9,76.1,68.7,72.2,72.7,67.8z M68.7,70.5c1.1-1.3,2.5-2.2,3.5-3.6c0.1,0.1,0.1,0.2,0.2,0.3c0,0,0,0,0,0   C71,68.2,69.8,69.3,68.7,70.5z M73.8,68.9c0.3,0.2,0.5,0.3,0.8,0.5c-3.4,3.8-6.8,7.8-9.7,12.1c-0.8,0.1-1.5,0.2-2.3,0.3   C65.7,76.9,70.8,73.8,73.8,68.9z M75.5,69.7c0.6,0.1,1.2,0.1,1.9-0.1c-3.5,3.4-7.1,7.3-9.8,11.4c-0.6,0.1-1.2,0.3-1.8,0.4   C69.1,77.6,72.8,73.9,75.5,69.7z M78.2,69.5c0.1-0.1,0.1-0.2,0-0.3c1.6-0.7,3.3-2.2,4.7-3.8c0,0.2,0,0.4,0,0.5   c-0.1,0-0.1,0.1-0.2,0.1c-4.5,4.3-9,9.1-12.7,14.2c-0.4,0.1-0.8,0.2-1.2,0.3C72.3,77.3,75.4,73.3,78.2,69.5z M76.6,75   c-0.6,0.7-2.5,2.5-2.4,3.7c-0.9,0.4-1.8,0.8-2.8,1.2c4-3.9,7.8-8.2,11.4-12.5c-0.1,0.8-0.3,1.6-0.5,2.3c-0.1,0-0.2,0-0.3,0.1   C80,71.3,78.2,73.2,76.6,75z M81.3,72.1c-1.4,2.7-3.6,4.7-6.3,6.2c0.8-1.2,2.4-2.5,3.2-3.3C79.2,74,80.3,73.1,81.3,72.1z    M16.6,65.5c0.2,0.2,0.4,0.5,0.6,0.7c-0.5,0.4-0.9,1-1.2,1.7c-0.1-0.3-0.3-0.6-0.4-0.9C16.1,66.5,16.4,66,16.6,65.5z M15.5,66.4   c-0.1-0.2-0.2-0.5-0.3-0.7c0.1,0,0.2-0.1,0.2-0.3c0-0.2,0-0.4,0.1-0.6c0.1-0.2,0.2-0.3,0.2-0.5c0.2,0.3,0.4,0.6,0.6,0.8   C16,65.5,15.7,65.9,15.5,66.4z M16.3,68.3c0.4-0.6,0.9-1.1,1.2-1.7c0.2,0.3,0.5,0.5,0.7,0.8c-0.6,0.6-1.1,1.3-1.6,2   C16.6,69,16.4,68.7,16.3,68.3C16.3,68.3,16.3,68.3,16.3,68.3z M18.8,67.8c0.1,0.1,0.1,0.1,0.2,0.2c-0.7,0.7-1.1,1.8-1.5,2.7   c-0.1-0.3-0.3-0.5-0.5-0.8C17.6,69.3,18.3,68.6,18.8,67.8z M18.9,69.4c0.2-0.3,0.4-0.6,0.6-0.9c0.3,0.3,0.6,0.5,0.8,0.7   c-0.9,0.7-1.5,1.9-2,2.8c-0.2-0.3-0.4-0.6-0.5-0.9C18.2,70.6,18.6,70,18.9,69.4z M19.7,71.2c0.4-0.5,0.8-1,1.1-1.6   c0.1,0.1,0.2,0.2,0.3,0.3c-0.3,0.3-0.6,0.8-0.9,1.1c-0.4,0.7-0.8,1.4-1.3,2.1c-0.1-0.2-0.2-0.3-0.3-0.5   C19,72.2,19.4,71.7,19.7,71.2z M20.6,71.9c0.3-0.5,0.8-0.9,1.1-1.4c0.2,0.2,0.4,0.3,0.6,0.5c-0.3,0.4-0.5,0.8-0.8,1.1   c-0.6,0.8-1.1,1.5-1.6,2.3c-0.2-0.3-0.4-0.5-0.6-0.8C19.8,73.1,20.2,72.5,20.6,71.9z M22.1,72.5c0.3-0.3,0.6-0.7,0.9-1   c0.2,0.1,0.3,0.1,0.5,0c-0.9,1.4-1.8,2.7-2.6,4.1c-0.2-0.3-0.4-0.5-0.6-0.8C20.8,74,21.5,73.3,22.1,72.5z"/>
	<path d="M39.7,52.8c-0.6-0.3-1.1-0.6-1.7-0.9c-0.1-0.1-0.2-0.2-0.4-0.2c-2.7-1.4-5.3-2.9-7.8-4.6c0.1-0.2,0.2-0.4,0.3-0.6   c0.1-0.3-0.2-0.6-0.5-0.4c-0.2,0.1-0.3,0.3-0.5,0.5c-1.2-0.9-2.4-1.8-3.5-2.8c-0.4-0.3-0.9,0-0.8,0.4c-5.8,1.5-5.9,7.5-2.3,11.5   c5.2,5.6,12.9,3.5,17.3-1.7C40.2,53.6,40.2,53.1,39.7,52.8z M25.1,45.5c-0.8,0.7-1.3,1.6-1.9,2.4c-0.5,0.6-1,1.3-1.4,1.9   C21.9,48.1,22.9,46.5,25.1,45.5z M21.8,50.9c0.7-0.8,1.3-1.6,2-2.4c0.7-0.8,1.5-1.6,2-2.5c0.2-0.3-0.1-0.6-0.4-0.6c0,0,0,0,0.1,0   c0.1-0.1,0.2-0.1,0.3-0.2c0.4,0.4,0.8,0.7,1.2,1.1c-1.6,1.9-3.3,3.7-4.9,5.7C22,51.6,21.9,51.3,21.8,50.9z M22.4,52.6   c1.8-1.8,3.9-3.6,5.3-5.8c0.2,0.2,0.5,0.4,0.8,0.6c-0.6,0.8-1.2,1.7-1.8,2.5c-1.1,1.4-2.2,2.7-3.5,3.9C22.9,53.4,22.6,53,22.4,52.6   z M24.5,55.1c-0.3-0.3-0.7-0.6-0.9-0.9c1.3-1,2.4-2.2,3.4-3.4c0.7-0.9,1.6-1.8,2.3-2.8c0.3,0.2,0.5,0.4,0.8,0.5   c-1.2,0.8-2.2,2.2-3.1,3.4c-0.9,1-1.7,2.1-2.2,3.3C24.6,55.2,24.5,55.1,24.5,55.1z M24.9,55.5c0.8-1.2,1.7-2.3,2.7-3.4   c0.9-1,2.2-1.9,2.7-3.1c0,0,0-0.1,0-0.1c0.3,0.2,0.6,0.4,0.9,0.6c-2.1,1.9-3.9,4.2-5.5,6.6C25.5,55.9,25.2,55.7,24.9,55.5z    M26.3,56.3c1.9-2.2,3.8-4.3,5.9-6.3c0.3,0.2,0.5,0.3,0.8,0.5c-1.1,1.1-2,2.4-2.9,3.6C29.4,55,28.7,56,28,57   C27.4,56.8,26.9,56.6,26.3,56.3z M28.6,57.1c0.8-0.9,1.7-1.9,2.5-2.8c0.9-1,2-2,2.8-3.2c0.3,0.2,0.6,0.4,0.9,0.6   c-0.6,0.6-1,1.4-1.5,2c-1,1.3-1.9,2.8-3.4,3.7C29.5,57.2,29.1,57.2,28.6,57.1z M33.1,55.2c0.5-0.6,1-1.3,1.6-2   c0.3-0.4,0.7-0.7,1-1.1c0.3,0.2,0.5,0.3,0.8,0.5c-0.6,0.6-1.1,1.4-1.6,2c-0.6,0.7-1.2,1.5-1.9,2.2c-0.7,0.2-1.3,0.3-2,0.4   C31.8,56.7,32.5,56,33.1,55.2z M34.5,56.2c0.3-0.3,0.6-0.6,0.9-0.9c0.6-0.6,1.4-1.3,1.9-2.1c0.2,0.1,0.5,0.3,0.7,0.4   C37,54.7,35.8,55.6,34.5,56.2z"/>
	<path d="M77.2,45.7c-2-1.1-4.5,2.1-5.8,3.3c-3.1,2.6-6,5.4-9.5,7.4c-0.5,0.3-0.1,1.1,0.5,0.8c0.4-0.2,0.7-0.4,1.1-0.6   c-0.1,0.2-0.3,0.4-0.4,0.6c-0.1,0.2-0.2,0.3-0.3,0.5c-0.1,0.1-0.1,0.2-0.1,0.3c0,0,0,0,0,0c-0.5,0.1-0.8,0.9-0.3,1.3   c3,2.3,7,2.3,10.6,1c0.1,0,0.2,0,0.3-0.1c0,0,0,0,0,0c3.4-1.3,6.3-4,7.6-7.2C82.1,50,79.9,47.2,77.2,45.7z M63.8,58.6   c-0.2-0.1-0.4-0.2-0.6-0.4c0.4-0.2,0.8-1,1-1.2c0.3-0.4,0.6-0.8,0.8-1.2c0.9-0.5,1.7-1.1,2.6-1.7C66.2,55.5,65.3,57.3,63.8,58.6   C63.8,58.6,63.8,58.6,63.8,58.6z M64.2,58.8c1.5-1.2,2.8-2.9,3.8-4.5c0.1-0.2-0.1-0.4-0.2-0.4c0.8-0.6,1.5-1.2,2.3-1.8   c-0.6,0.8-1.2,1.7-1.8,2.5c-1,1.5-2.1,3-2.8,4.7C65.1,59.2,64.7,59,64.2,58.8z M65.9,59.5c1-1.2,1.8-2.6,2.7-3.9   c1.1-1.6,2.5-3.1,3.5-4.8c0.1-0.1,0-0.2,0-0.3c0.8-0.7,1.6-1.3,2.4-2c-1.3,1.3-2.5,3-3.6,4.4c-1.5,2-3.1,4.3-3.7,6.8   C66.8,59.7,66.3,59.6,65.9,59.5z M67.7,59.8c1-2,2.1-4,3.4-5.8c1.5-2.2,3.5-4.1,5.1-6.3c0.1-0.2-0.1-0.4-0.3-0.3   c-0.1,0.1-0.2,0.1-0.3,0.2c0.2-0.2,0.5-0.4,0.7-0.6c0.6,0.3,1.1,0.6,1.5,1c-1.8,1.5-3.2,3.7-4.6,5.5c-1.6,2.1-3.2,4.1-4.7,6.3   C68.2,59.8,68,59.8,67.7,59.8z M69.5,59.8c1.5-1.8,2.9-3.7,4.4-5.5c1.4-1.8,3.3-3.7,4.4-5.8c0.3,0.3,0.5,0.6,0.7,1   c-3,3.1-5.6,6.5-7.9,10.1C70.5,59.6,70,59.7,69.5,59.8z M79.3,50.3c0.1,0.4,0.1,0.7,0.1,1.1c-2.2,1.9-4,4.6-5.7,7.1   c-0.7,0.3-1.3,0.6-2,0.8C74.4,56.4,76.8,53.3,79.3,50.3z M76.6,56.6c-0.2,0.2-0.5,0.4-0.7,0.6c0.3-0.4,0.6-0.8,0.9-1.1   c0.8-1,1.6-1.9,2.3-2.8C78.7,54.4,77.8,55.6,76.6,56.6z"/>
</g>
</svg>